<svg width="80" height="80" viewBox="0 0 80 80" fill="none" xmlns="http://www.w3.org/2000/svg">
<g clip-path="url(#clip0_15_18)">
<path d="M68.217 11.6256C60.7297 4.13311 50.7737 0.00457137 40.1663 0C18.3081 0 0.5199 17.7825 0.511149 39.6397C0.508602 46.6265 2.33415 53.4466 5.80401 59.4583L0.178223 80L21.1999 74.4878C26.9917 77.6465 33.513 79.311 40.1492 79.3136H40.1661H40.1663C62.0209 79.3136 79.8118 61.528 79.8211 39.6718C79.8247 29.0788 75.7034 19.1187 68.217 11.6256ZM40.1663 72.6184H40.1534C34.2382 72.6152 28.4375 71.0271 23.3779 68.0248L22.1738 67.3111L9.69914 70.5817L13.0297 58.4235L12.2452 57.177C8.94565 51.9306 7.20376 45.8677 7.20624 39.6423C7.21349 21.4752 21.9983 6.69555 40.1787 6.69555C48.9827 6.69921 57.2573 10.1309 63.4806 16.3584C69.7035 22.586 73.128 30.8646 73.1254 39.669C73.1177 57.8366 58.3323 72.6184 40.1663 72.6184Z" fill="#E0E0E0"/>
<path d="M1.99878 77.7207L7.36759 58.1173C4.05537 52.3801 2.31355 45.8711 2.31564 39.2048C2.32433 18.3464 19.3001 1.37671 40.158 1.37671C50.2814 1.38128 59.7828 5.32102 66.9265 12.4715C74.0718 19.6219 78.0044 29.1264 78.0003 39.2344C77.9916 60.0933 61.0148 77.0645 40.1595 77.0645C40.1606 77.0645 40.158 77.0645 40.1595 77.0645H40.1427C33.8096 77.0624 27.5867 75.4727 22.0598 72.4605L1.99878 77.7207Z" fill="url(#paint0_linear_15_18)"/>
<path fill-rule="evenodd" clip-rule="evenodd" d="M30.3671 22.8108C29.6335 21.1797 28.8611 21.147 28.1631 21.1185C27.5922 21.094 26.9386 21.0955 26.2861 21.0955C25.633 21.0955 24.5718 21.3409 23.6744 22.321C22.7764 23.3011 20.2458 25.6704 20.2458 30.4892C20.2458 35.3086 23.756 39.9652 24.2453 40.6192C24.7351 41.2723 31.0212 51.4773 40.9767 55.4032C49.2505 58.6659 50.9342 58.0169 52.7301 57.8537C54.526 57.6904 58.5249 55.4848 59.3412 53.1976C60.1576 50.9109 60.1576 48.9507 59.9127 48.541C59.6678 48.1328 59.0147 47.8879 58.0351 47.3982C57.0556 46.9084 52.2403 44.5385 51.3424 44.212C50.4444 43.8854 49.7914 43.7222 49.1383 44.7028C48.4853 45.6824 46.6093 47.8879 46.0378 48.541C45.4664 49.1956 44.895 49.2772 43.9154 48.7874C42.9358 48.2961 39.7813 47.2629 36.039 43.9262C33.1273 41.3303 31.1615 38.1242 30.5901 37.1437C30.0187 36.1641 30.5288 35.6335 31.0202 35.1452C31.4599 34.7064 31.9998 34.0018 32.4895 33.4299C32.9783 32.8579 33.1415 32.4498 33.4681 31.7967C33.7946 31.1426 33.6313 30.5707 33.3864 30.081C33.1415 29.5912 31.238 24.7475 30.3671 22.8108Z" fill="white"/>
<path d="M67.8933 11.4996C60.4918 4.09302 50.6501 0.0119609 40.1646 0.00732422C18.5572 0.00732422 0.973257 17.5857 0.964571 39.192C0.962024 46.0986 2.7666 52.8403 6.19663 58.7831L0.635498 79.0889L21.4158 73.64C27.1413 76.7624 33.5876 78.4078 40.1477 78.4104H40.1644H40.1646C61.7683 78.4104 79.3549 60.8289 79.3641 39.2236C79.3677 28.7524 75.2937 18.9066 67.8933 11.4996ZM40.1646 71.7921H40.1518C34.3045 71.789 28.5703 70.2192 23.5689 67.2514L22.3786 66.5458L10.0471 69.7789L13.3394 57.7602L12.5639 56.5281C9.30223 51.3419 7.58032 45.3486 7.58287 39.1946C7.58999 21.2362 22.2051 6.62614 40.1769 6.62614C48.8798 6.62974 57.0593 10.022 63.2113 16.1781C69.3627 22.3342 72.7479 30.5177 72.7453 39.2212C72.7376 57.1801 58.122 71.7921 40.1646 71.7921Z" fill="white"/>
</g>
<defs>
<linearGradient id="paint0_linear_15_18" x1="39.9996" y1="77.7207" x2="39.9996" y2="1.37684" gradientUnits="userSpaceOnUse">
<stop stop-color="#20B038"/>
<stop offset="1" stop-color="#60D66A"/>
</linearGradient>
<clipPath id="clip0_15_18">
<rect width="80" height="80" fill="white"/>
</clipPath>
</defs>
</svg>
